<svg xmlns="http://www.w3.org/2000/svg" version="1.1" xmlns:xlink="http://www.w3.org/1999/xlink" xmlns:svgjs="http://svgjs.dev/svgjs" width="1000" height="222" viewBox="0 0 1000 222"><g transform="matrix(1,0,0,1,-0.6060606060606233,0.3796150378334886)"><svg viewBox="0 0 396 88" data-background-color="#ffffff" preserveAspectRatio="xMidYMid meet" height="222" width="1000" xmlns="http://www.w3.org/2000/svg" xmlns:xlink="http://www.w3.org/1999/xlink"><g id="tight-bounds" transform="matrix(1,0,0,1,0.2400000000000091,-0.15047803301507656)"><svg viewBox="0 0 395.52 88.30095606603014" height="88.30095606603014" width="395.52"><g><svg viewBox="0 0 538.2421587672603 120.1640807397681" height="88.30095606603014" width="395.52"><g><rect width="6.056875035060493" height="120.1640807397681" x="120.80958992314099" y="0" fill="#3d9970" opacity="1" stroke-width="0" stroke="transparent" fill-opacity="1" class="rect-qz-0" data-fill-palette-color="primary" rx="1%" id="qz-0" data-palette-color="#3d9970"></rect></g><g transform="matrix(1,0,0,1,142.72215876726037,0.29891562373075686)"><svg viewBox="0 0 395.52 119.56624949230658" height="119.56624949230658" width="395.52"><g id="textblocktransform"><svg viewBox="0 0 395.52 119.56624949230658" height="119.56624949230658" width="395.52" id="textblock"><g><svg viewBox="0 0 395.52 67.1635143303804" height="67.1635143303804" width="395.52"><g transform="matrix(1,0,0,1,0,0)"><svg width="395.52" viewBox="2.0787878787878786 -37.1 221.4012121212121 37.6" height="67.1635143303804" data-palette-color="#3d9970"><path d="M31.2-37.1L31.2-37.1Q31.55-37.1 31.68-36.9 31.8-36.7 31.6-36.4L31.6-36.4 19.7-16.5Q19.5-16.2 19.45-15.9 19.4-15.6 19.4-14.85L19.4-14.85 19.4-0.85Q19.4 0 18.45 0L18.45 0 15.45 0Q14.95 0 14.8-0.2 14.65-0.4 14.65-0.75L14.65-0.75 14.65-14.65Q14.65-15.15 14.55-15.4 14.45-15.65 14.25-16L14.25-16 2.2-36.3Q2-36.65 2.13-36.88 2.25-37.1 2.75-37.1L2.75-37.1 6.35-37.1Q6.8-37.1 7-36.98 7.2-36.85 7.4-36.5L7.4-36.5 16.7-20.5Q17-19.95 17.25-19.93 17.5-19.9 17.8-20.4L17.8-20.4 27.05-36.5Q27.25-36.9 27.45-37 27.65-37.1 28.1-37.1L28.1-37.1 31.2-37.1ZM43.4 0.5L43.4 0.5Q39.65 0.5 36.77-1.23 33.9-2.95 32.32-6.03 30.75-9.1 30.75-13.1L30.75-13.1Q30.75-17.25 32.37-20.38 34-23.5 36.85-25.25 39.7-27 43.45-27L43.45-27Q47.25-27 50.07-25.23 52.9-23.45 54.47-20.33 56.05-17.2 56.05-13.15L56.05-13.15Q56.05-9.15 54.45-6.08 52.85-3 50.02-1.25 47.2 0.5 43.4 0.5L43.4 0.5ZM43.5-2.65L43.5-2.65Q46.1-2.65 47.95-3.93 49.8-5.2 50.77-7.58 51.75-9.95 51.75-13.25L51.75-13.25Q51.75-16.55 50.75-18.93 49.75-21.3 47.9-22.6 46.05-23.9 43.45-23.9L43.45-23.9Q40.9-23.9 39-22.6 37.1-21.3 36.07-18.93 35.05-16.55 35.05-13.25L35.05-13.25Q35.05-10 36.07-7.6 37.1-5.2 39-3.93 40.9-2.65 43.5-2.65L43.5-2.65ZM71.25-2.8L71.25-2.8Q73.4-2.8 75.37-3.98 77.34-5.15 79.3-7.15L79.3-7.15 79.3-25.75Q79.3-26.5 80.09-26.5L80.09-26.5 82.84-26.5Q83.55-26.5 83.55-25.8L83.55-25.8 83.45-0.65Q83.45 0 82.9 0L82.9 0 80 0Q79.45 0 79.45-0.55L79.45-0.55 79.45-3.5Q79.45-3.75 79.34-3.8 79.25-3.85 79-3.65L79-3.65Q76.25-1.3 74.12-0.4 72 0.5 69.9 0.5L69.9 0.5Q67.59 0.5 65.8-0.45 64-1.4 62.95-3.13 61.9-4.85 61.9-7.15L61.9-7.15 61.9-25.7Q61.9-26.5 62.65-26.5L62.65-26.5 65.45-26.5Q66.09-26.5 66.09-25.8L66.09-25.8 66.09-8.25Q66.09-5.8 67.47-4.3 68.84-2.8 71.25-2.8L71.25-2.8ZM89.44-33.95L89.44-36.55Q89.44-36.8 89.57-36.95 89.69-37.1 90.04-37.1L90.04-37.1 116.94-37.1Q117.24-37.1 117.39-36.95 117.54-36.8 117.54-36.55L117.54-36.55 117.54-33.95Q117.54-33.45 116.94-33.45L116.94-33.45 106.79-33.45Q106.24-33.45 106.24-32.95L106.24-32.95 106.24-0.65Q106.24 0 105.64 0L105.64 0 102.04 0Q101.44 0 101.44-0.65L101.44-0.65 101.44-32.9Q101.44-33.45 100.94-33.45L100.94-33.45 90.04-33.45Q89.44-33.45 89.44-33.95L89.44-33.95ZM120.94-11.6L120.94-11.6Q120.94-9.15 122.12-7.13 123.29-5.1 125.27-3.9 127.24-2.7 129.69-2.7L129.69-2.7Q132.19-2.7 134.14-3.73 136.09-4.75 137.49-6.85L137.49-6.85Q137.69-7.05 137.81-7.08 137.94-7.1 138.19-7L138.19-7 140.29-5.95Q140.74-5.7 140.39-5.25L140.39-5.25Q139.04-3.25 137.42-1.98 135.79-0.7 133.79-0.1 131.79 0.5 129.29 0.5L129.29 0.5Q125.59 0.5 122.74-1.2 119.89-2.9 118.24-5.95 116.59-9 116.59-13L116.59-13Q116.59-17.35 118.27-20.48 119.94-23.6 122.82-25.3 125.69-27 129.24-27L129.24-27Q132.89-27 135.59-25.4 138.29-23.8 139.79-20.75 141.29-17.7 141.29-13.4L141.29-13.4Q141.29-13.05 141.22-12.7 141.14-12.35 140.54-12.35L140.54-12.35 121.39-12.35Q121.19-12.35 121.07-12.13 120.94-11.9 120.94-11.6L120.94-11.6ZM121.04-15.1L136.24-15.1Q136.79-15.1 136.94-15.23 137.09-15.35 137.09-15.8L137.09-15.8Q137.09-17.95 136.17-19.83 135.24-21.7 133.52-22.85 131.79-24 129.34-24L129.34-24Q126.64-24 124.79-22.73 122.94-21.45 121.99-19.4 121.04-17.35 121.04-15.1L121.04-15.1ZM162.44-3.2L162.44-3.2Q160.59-1.4 158.41-0.45 156.24 0.5 153.54 0.5L153.54 0.5Q149.64 0.5 147.41-1.5 145.19-3.5 145.19-6.75L145.19-6.75Q145.19-9.4 146.69-11.33 148.19-13.25 151.14-14.38 154.09-15.5 158.39-15.75L158.39-15.75 162.29-16.05Q162.59-16.1 162.84-16.25 163.09-16.4 163.09-16.8L163.09-16.8 163.09-18.15Q163.09-20.85 161.41-22.43 159.74-24 156.89-24L156.89-24Q154.69-24 152.91-23 151.14-22 149.74-20L149.74-20Q149.54-19.75 149.41-19.68 149.29-19.6 148.99-19.7L148.99-19.7 146.29-20.6Q146.14-20.7 146.06-20.85 145.99-21 146.19-21.4L146.19-21.4Q147.69-24 150.41-25.5 153.14-27 157.09-27L157.09-27Q160.44-27 162.66-25.98 164.89-24.95 166.01-23.03 167.14-21.1 167.14-18.45L167.14-18.45 167.14-0.75Q167.14-0.3 166.99-0.15 166.84 0 166.49 0L166.49 0 163.94 0Q163.59 0 163.44-0.23 163.29-0.45 163.24-0.8L163.24-0.8 163.19-3.1Q163.04-3.8 162.44-3.2L162.44-3.2ZM163.09-12.7L163.09-12.7Q163.09-13.55 162.39-13.5L162.39-13.5 159.09-13.2Q156.79-13.1 154.99-12.63 153.19-12.15 151.94-11.4 150.69-10.65 150.04-9.63 149.39-8.6 149.39-7.25L149.39-7.25Q149.39-5.05 150.91-3.83 152.44-2.6 155.04-2.6L155.04-2.6Q156.64-2.6 158.11-3.18 159.59-3.75 160.69-4.65L160.69-4.65Q161.84-5.6 162.46-6.6 163.09-7.6 163.09-8.55L163.09-8.55 163.09-12.7ZM185.59-27L185.59-27Q188.19-27 190.16-26.18 192.14-25.35 193.56-23.93 194.99-22.5 195.94-20.8L195.94-20.8Q196.24-20.2 195.69-20.05L195.69-20.05 192.94-19.4Q192.59-19.25 192.29-19.7L192.29-19.7Q191.29-21.15 190.31-22.05 189.34-22.95 188.24-23.43 187.14-23.9 185.84-23.9L185.84-23.9Q183.29-23.9 181.36-22.63 179.44-21.35 178.39-18.95 177.34-16.55 177.34-13.25L177.34-13.25Q177.34-9.9 178.41-7.5 179.49-5.1 181.41-3.85 183.34-2.6 185.94-2.6L185.94-2.6Q188.34-2.6 190.09-3.8 191.84-5 193.29-7.3L193.29-7.3Q193.44-7.55 193.56-7.58 193.69-7.6 193.94-7.5L193.94-7.5 196.09-6.7Q196.44-6.55 196.29-6.05L196.29-6.05Q195.54-4.75 194.54-3.55 193.54-2.35 192.21-1.45 190.89-0.55 189.24-0.03 187.59 0.5 185.59 0.5L185.59 0.5Q181.89 0.5 179.06-1.23 176.24-2.95 174.64-6.03 173.04-9.1 173.04-13.15L173.04-13.15Q173.04-17.25 174.66-20.35 176.29-23.45 179.11-25.23 181.94-27 185.59-27L185.59-27ZM202.38 0L202.38 0Q201.73 0 201.73-0.65L201.73-0.65 201.73-36.45Q201.73-37.1 202.28-37.1L202.28-37.1 205.23-37.1Q205.78-37.1 205.78-36.5L205.78-36.5 205.78-23.15Q205.78-22.9 205.88-22.85 205.98-22.8 206.23-23L206.23-23Q207.98-24.35 209.46-25.25 210.93-26.15 212.36-26.58 213.78-27 215.48-27L215.48-27Q219.38-27 221.43-24.93 223.48-22.85 223.48-19.4L223.48-19.4 223.48-0.8Q223.48 0 222.73 0L222.73 0 219.93 0Q219.58 0 219.43-0.18 219.28-0.35 219.28-0.65L219.28-0.65 219.28-18.5Q219.28-20.95 218.03-22.33 216.78-23.7 214.08-23.7L214.08-23.7Q212.63-23.7 211.36-23.23 210.08-22.75 208.78-21.88 207.48-21 205.93-19.65L205.93-19.65 205.93-0.75Q205.93 0 205.13 0L205.13 0 202.38 0Z" opacity="1" transform="matrix(1,0,0,1,0,0)" fill="#3d9970" class="wordmark-text-0" data-fill-palette-color="primary" id="text-0"></path></svg></g></svg></g><g transform="matrix(1,0,0,1,0,83.01920813943927)"><svg viewBox="0 0 232.209792 36.5470413528673" height="36.5470413528673" width="232.209792"><g transform="matrix(1,0,0,1,0,0)"><svg width="232.209792" viewBox="2.65 -37 238.87 37.6" height="36.5470413528673" data-palette-color="#bf6e00"><path d="M15.45 0L2.65 0 2.65-3.3 7.05-3.3 7.05-31.6 2.65-31.6 2.65-34.9 15.45-34.9 15.45-31.6 11.05-31.6 11.05-3.3 15.45-3.3 15.45 0ZM42.75-31.4L32.9-31.4 32.9 0 28.9 0 28.9-31.4 19.05-31.4 19.05-34.9 42.75-34.9 42.75-31.4ZM67.44 0.6L67.44 0.6Q63.69 0.6 60.89-0.98 58.09-2.55 56.24-5.35L56.24-5.35 59.14-7.75Q60.74-5.4 62.74-4.13 64.74-2.85 67.44-2.85L67.44-2.85Q74.54-2.85 74.54-9.5L74.54-9.5Q74.54-12.2 73.24-13.6 71.94-15 68.74-15.8L68.74-15.8 66.14-16.45Q61.54-17.6 59.37-19.83 57.19-22.05 57.19-26.1L57.19-26.1Q57.19-30.75 60.09-33.13 62.99-35.5 67.79-35.5L67.79-35.5Q71.44-35.5 73.92-34.15 76.39-32.8 78.24-29.9L78.24-29.9 75.29-27.8Q73.94-29.9 72.22-30.98 70.49-32.05 67.64-32.05L67.64-32.05Q64.44-32.05 62.77-30.65 61.09-29.25 61.09-26.1L61.09-26.1Q61.09-23.55 62.47-22.25 63.84-20.95 66.89-20.2L66.89-20.2 69.49-19.55Q71.94-18.95 73.64-18.13 75.34-17.3 76.42-16.1 77.49-14.9 77.97-13.28 78.44-11.65 78.44-9.5L78.44-9.5Q78.44-4.55 75.52-1.98 72.59 0.6 67.44 0.6ZM93.24 0.6L93.24 0.6Q90.99 0.6 89.04-0.15 87.09-0.9 85.69-2.55 84.29-4.2 83.49-6.75 82.69-9.3 82.69-12.9L82.69-12.9Q82.69-16.5 83.49-19.05 84.29-21.6 85.69-23.25 87.09-24.9 89.04-25.65 90.99-26.4 93.24-26.4L93.24-26.4Q95.49-26.4 97.44-25.65 99.39-24.9 100.79-23.25 102.19-21.6 102.99-19.05 103.79-16.5 103.79-12.9L103.79-12.9Q103.79-9.3 102.99-6.75 102.19-4.2 100.79-2.55 99.39-0.9 97.44-0.15 95.49 0.6 93.24 0.6ZM93.24-2.8L93.24-2.8Q96.34-2.8 98.02-4.65 99.69-6.5 99.69-10.3L99.69-10.3 99.69-15.5Q99.69-19.3 98.02-21.15 96.34-23 93.24-23L93.24-23Q90.14-23 88.47-21.15 86.79-19.3 86.79-15.5L86.79-15.5 86.79-10.3Q86.79-6.5 88.47-4.65 90.14-2.8 93.24-2.8ZM116.69 0L113.54 0Q111.49 0 110.56-0.93 109.64-1.85 109.64-3.9L109.64-3.9 109.64-37 113.44-37 113.44-3.35 116.69-3.35 116.69 0ZM136.24 0L136.24-4.2 135.74-4.2Q134.99-1.8 133.41-0.6 131.84 0.6 129.14 0.6L129.14 0.6Q125.69 0.6 123.71-1.75 121.74-4.1 121.74-9L121.74-9 121.74-25.8 125.54-25.8 125.54-9.25Q125.54-6.15 126.81-4.5 128.09-2.85 130.74-2.85L130.74-2.85Q133.04-2.85 134.64-4.25 136.24-5.65 136.24-8.2L136.24-8.2 136.24-25.8 140.04-25.8 140.04 0 136.24 0ZM157.48 0L152.83 0Q150.78 0 149.86-0.93 148.93-1.85 148.93-3.9L148.93-3.9 148.93-22.45 145.13-22.45 145.13-25.8 147.38-25.8Q148.53-25.8 148.91-26.38 149.28-26.95 149.28-28.1L149.28-28.1 149.28-32.9 152.73-32.9 152.73-25.8 157.73-25.8 157.73-22.45 152.73-22.45 152.73-3.35 157.48-3.35 157.48 0ZM165.43-32.05L165.43-32.05Q163.08-32.05 163.08-34.1L163.08-34.1 163.08-34.9Q163.08-36.95 165.43-36.95L165.43-36.95Q167.78-36.95 167.78-34.9L167.78-34.9 167.78-34.1Q167.78-32.05 165.43-32.05ZM163.53 0L163.53-25.8 167.33-25.8 167.33 0 163.53 0ZM183.73 0.6L183.73 0.6Q181.48 0.6 179.53-0.15 177.58-0.9 176.18-2.55 174.78-4.2 173.98-6.75 173.18-9.3 173.18-12.9L173.18-12.9Q173.18-16.5 173.98-19.05 174.78-21.6 176.18-23.25 177.58-24.9 179.53-25.65 181.48-26.4 183.73-26.4L183.73-26.4Q185.98-26.4 187.93-25.65 189.88-24.9 191.28-23.25 192.68-21.6 193.48-19.05 194.28-16.5 194.28-12.9L194.28-12.9Q194.28-9.3 193.48-6.75 192.68-4.2 191.28-2.55 189.88-0.9 187.93-0.15 185.98 0.6 183.73 0.6ZM183.73-2.8L183.73-2.8Q186.83-2.8 188.5-4.65 190.18-6.5 190.18-10.3L190.18-10.3 190.18-15.5Q190.18-19.3 188.5-21.15 186.83-23 183.73-23L183.73-23Q180.63-23 178.95-21.15 177.28-19.3 177.28-15.5L177.28-15.5 177.28-10.3Q177.28-6.5 178.95-4.65 180.63-2.8 183.73-2.8ZM203.93 0L200.13 0 200.13-25.8 203.93-25.8 203.93-21.6 204.43-21.6Q205.18-24 206.75-25.2 208.33-26.4 211.03-26.4L211.03-26.4Q214.48-26.4 216.45-24.05 218.43-21.7 218.43-16.8L218.43-16.8 218.43 0 214.63 0 214.63-16.55Q214.63-19.65 213.35-21.3 212.08-22.95 209.43-22.95L209.43-22.95Q207.13-22.95 205.53-21.55 203.93-20.15 203.93-17.6L203.93-17.6 203.93 0ZM232.92 0.6L232.92 0.6Q229.72 0.6 227.45-0.7 225.17-2 223.57-4.3L223.57-4.3 226.22-6.5Q227.57-4.6 229.15-3.6 230.72-2.6 232.92-2.6L232.92-2.6Q235.17-2.6 236.5-3.73 237.82-4.85 237.82-6.95L237.82-6.95Q237.82-8.65 236.97-9.7 236.12-10.75 233.82-11.15L233.82-11.15 231.87-11.5Q228.12-12.2 226.3-13.85 224.47-15.5 224.47-18.85L224.47-18.85Q224.47-20.8 225.07-22.23 225.67-23.65 226.77-24.58 227.87-25.5 229.4-25.93 230.92-26.35 232.72-26.35L232.72-26.35Q235.62-26.35 237.6-25.33 239.57-24.3 241.02-22.35L241.02-22.35 238.57-20.1Q237.72-21.3 236.32-22.23 234.92-23.15 232.72-23.15L232.72-23.15Q228.17-23.15 228.17-19L228.17-19Q228.17-17.1 229.15-16.23 230.12-15.35 232.32-14.95L232.32-14.95 234.27-14.6Q238.22-13.9 239.87-12.15 241.52-10.4 241.52-7.4L241.52-7.4Q241.52-3.65 239.35-1.53 237.17 0.6 232.92 0.6Z" opacity="1" transform="matrix(1,0,0,1,0,0)" fill="#bf6e00" class="slogan-text-1" data-fill-palette-color="secondary" id="text-1"></path></svg></g></svg></g></svg></g></svg></g><g transform="matrix(1,0,0,1,0,0.29891562373076397)"><svg viewBox="0 0 104.95389611408211 119.56624949230657" height="119.56624949230657" width="104.95389611408211"><g><svg xmlns="http://www.w3.org/2000/svg" xmlns:xlink="http://www.w3.org/1999/xlink" version="1.0" x="0" y="0" viewBox="0.0003873846944192072 0 87.77710890974538 99.99799999999999" enable-background="new 0 0 87.778 100" xml:space="preserve" width="104.95389611408211" height="119.56624949230657" class="icon-icon-0" data-fill-palette-color="accent" id="icon-0"><g fill="#3d9970" data-fill-palette-color="accent"><path d="M70.307 14.579l-0.214-0.081-0.123-0.191C66.111 8.318 59.805 3.77 52.212 1.5 48.882 0.505 45.322 0 41.63 0 29.613 0 18.269 5.316 13.4 13.229l-0.114 0.184L13.089 13.5c-5.724 2.504-10.272 8.227-12.17 15.307C-1.14 36.49 0.299 44.455 4.867 50.66c3.425 4.653 7.066 6.915 11.133 6.915 1.584 0 3.238-0.336 5.032-1.019 4.985-2.353 7.275-5.136 7.358-5.239 0.126-0.162 0.323-0.267 0.545-0.267 0.382 0 0.691 0.31 0.691 0.691 0 0.621-2.333 2.68-4.266 3.972-0.304 0.203-0.635 0.415-0.991 0.63 2.243 0.19 6.034 0.447 10.149 0.447 8.055 0 13.891-0.976 16.877-2.822l0.364-0.225 0.363 0.226c3.448 2.14 7.985 2.645 9.924 2.86 0.725 0.081 0.943 0.105 1.133 0.202 2.975 1.524 6.126 2.33 9.114 2.33 7.092 0 12.683-4.387 14.591-11.448C89.453 38.412 87.223 20.96 70.307 14.579z" fill="#3d9970" data-fill-palette-color="accent"></path><path d="M51.961 77.67c1.24-6.472 4.543-14.176 8.498-19.641-2.279-0.307-5.768-0.965-8.702-2.669-0.041 0.023-0.087 0.044-0.129 0.067-0.882 2.965-2.245 6.166-3.409 9.211-0.832 2.179-1.223 7.187-2.039 11.41-0.033-0.104-0.526-1.587-0.56-1.685-1.501-4.401-2.728-7.654-3.422-12.266-0.255-1.685-0.071-3.162 0.532-4.33-2.398 0.27-5.138 0.405-8.211 0.405-3.728 0-7.192-0.208-9.508-0.39 1.806 2.253 3.841 4.404 6.062 6.65 6.163 6.234 9.017 14.276 10.333 22.817 0.211 1.364 0.648 3.628 0.949 6.422 0.301 2.793-0.453 4.987-0.648 6.327h8.054c-0.159-1.408-0.643-3.808-0.499-6.609C49.406 90.588 51.504 80.055 51.961 77.67z" fill="#3d9970" data-fill-palette-color="accent"></path></g></svg></g></svg></g></svg></g><defs></defs></svg><rect width="395.52" height="88.30095606603014" fill="none" stroke="none" visibility="hidden"></rect></g></svg></g></svg>